<?xml version="1.0" encoding="UTF-8" standalone="no"?>
<!DOCTYPE svg PUBLIC "-//W3C//DTD SVG 1.1//EN" "http://www.w3.org/Graphics/SVG/1.1/DTD/svg11.dtd">
<svg width="100%" height="100%" viewBox="0 0 792 915" version="1.1" xmlns="http://www.w3.org/2000/svg" xmlns:xlink="http://www.w3.org/1999/xlink" xml:space="preserve" style="fill-rule:evenodd;clip-rule:evenodd;stroke-linecap:round;stroke-linejoin:round;stroke-miterlimit:1.41421;">
    <g transform="matrix(1.33333,0,0,1.33333,-0,-0)">
        <g transform="matrix(0.417683,0,0,0.417683,-192.732,-142.897)">
            <path d="M1167,363L1858.09,762L1858.09,1560L1167,1959L475.912,1560L475.912,762L1167,363Z" style="fill:rgb(117,233,154);"/>
        </g>
        <g transform="matrix(0.344653,0,0,0.344653,-106.483,-54.019)">
            <path d="M1167,363L1858.09,762L1858.09,1560L1167,1959L475.912,1560L475.912,762L1167,363Z" style="fill:rgb(72,75,251);"/>
        </g>
        <g transform="matrix(0.329705,0,0,0.329705,-90.0614,-37.6871)">
            <path d="M1167,363L1858.09,762L1858.09,1560L1167,1959L475.912,1560L475.912,762L1167,363Z" style="fill:rgb(21,12,61);"/>
        </g>
        <g transform="matrix(0.968568,0,0,0.968568,-454.594,-512.665)">
            <g transform="matrix(1,0,0,1,474.532,687)">
                <path d="M468,129C467.766,128.749 334,14 334,14L165,58L103,163L137,321L351,389L470,288L472,130L107,162L352,394L335,18L140,319L466,287L166,62L138,317L468,134" style="fill:none;stroke-width:1.08px;stroke:rgb(72,75,251);"/>
            </g>
            <g transform="matrix(1,0,0,1,474.532,687)">
                <path d="M471,133L353,387L350,390L164,62L469,128" style="fill:none;stroke-width:1.94px;stroke:rgb(72,75,251);"/>
            </g>
            <g transform="matrix(1,0,0,1,474.532,687)">
                <path d="M103,164L469,285L335,19L105,160" style="fill:none;stroke-width:1.94px;stroke:rgb(72,75,251);"/>
            </g>
            <g transform="matrix(1,0,0,1,474.532,687)">
                <circle cx="162" cy="61" r="4" style="fill:rgb(117,233,154);"/>
            </g>
            <g transform="matrix(1,0,0,1,476.532,685)">
                <circle cx="134" cy="323" r="6" style="fill:rgb(117,233,154);"/>
            </g>
            <g transform="matrix(1,0,0,1,474.532,687)">
                <circle cx="351.5" cy="391.5" r="4.5" style="fill:rgb(117,233,154);"/>
            </g>
            <g transform="matrix(1,0,0,1,474.532,687)">
                <circle cx="471" cy="131" r="7" style="fill:rgb(117,233,154);"/>
            </g>
            <g transform="matrix(1,0,0,1,474.532,687)">
                <circle cx="335.5" cy="16.5" r="6.5" style="fill:rgb(117,233,154);"/>
            </g>
            <g transform="matrix(1,0,0,1,474.532,687)">
                <circle cx="103" cy="163" r="5" style="fill:rgb(117,233,154);"/>
            </g>
            <g transform="matrix(1,0,0,1,474.532,687)">
                <circle cx="469.5" cy="287.5" r="4.5" style="fill:rgb(117,233,154);"/>
            </g>
        </g>
        <g transform="matrix(0.170404,-0.295149,0.295149,0.170404,-177.132,447.598)">
            <g transform="matrix(0.5547,-0.320256,0.276351,0.478655,-217.721,185.803)">
                <path d="M1341,976.5C1341,950.836 1323.02,930 1300.88,930L641.125,930C618.979,930 601,950.836 601,976.5L601,1069.5C601,1095.16 618.979,1116 641.125,1116L1300.88,1116C1323.02,1116 1341,1095.16 1341,1069.5L1341,976.5Z" style="fill:rgb(21,12,61);"/>
            </g>
            <g transform="matrix(-0.00189751,-0.186749,0.186749,-0.00189751,354.721,469.551)">
                <g transform="matrix(1.4671,2.54109,-2.54109,1.4671,1397.25,-206.562)">
                    <path d="M-22.8,509.9L20.9,509.9L20.9,513.4C20.9,521.4 20,528.4 18.1,534.5C16.3,540.2 13.2,545.5 8.8,550.4C-1,561.5 -13.5,567 -28.7,567C-43.5,567 -56.2,561.7 -66.7,551C-77.3,540.3 -82.5,527.4 -82.5,512.3C-82.5,496.9 -77.1,483.9 -66.4,473.2C-55.7,462.5 -42.6,457.1 -27.2,457.1C-18.9,457.1 -11.2,458.8 -4,462.2C2.9,465.6 9.6,471 16.2,478.6L4.8,489.5C-3.9,477.9 -14.5,472.2 -26.9,472.2C-38.1,472.2 -47.5,476.1 -55.1,483.8C-62.7,491.4 -66.5,500.9 -66.5,512.3C-66.5,524.1 -62.3,533.8 -53.8,541.4C-45.9,548.5 -37.3,552 -28.1,552C-20.2,552 -13.2,549.4 -6.9,544.1C-0.6,538.8 2.9,532.4 3.6,525L-22.8,525L-22.8,509.9L-22.8,509.9Z" style="fill:white;fill-rule:nonzero;"/>
                </g>
                <g transform="matrix(1.4671,2.54109,-2.54109,1.4671,1397.25,-206.562)">
                    <rect x="77.5" y="459.2" width="16" height="105.9" style="fill:white;fill-rule:nonzero;"/>
                </g>
                <g transform="matrix(1.4671,2.54109,-2.54109,1.4671,1397.25,-206.562)">
                    <path d="M184.7,474.2L184.7,565L168.7,565L168.7,474.2L144.4,474.2L144.4,459.2L209,459.2L209,474.2L184.7,474.2ZM334.2,464.9L334.2,483.8C325,476.1 315.4,472.2 305.5,472.2C294.6,472.2 285.5,476.1 278,483.9C270.5,491.7 266.8,501.2 266.8,512.4C266.8,523.5 270.5,532.9 278,540.5C285.5,548.1 294.7,551.9 305.6,551.9C311.2,551.9 316,551 319.9,549.2C322.1,548.3 324.4,547.1 326.7,545.5C329.1,543.9 331.5,542.1 334.1,539.9L334.1,559.2C325,564.4 315.4,567 305.3,567C290.2,567 277.3,561.7 266.6,551.2C256,540.6 250.6,527.7 250.6,512.7C250.6,499.2 255.1,487.2 264,476.6C275,463.7 289.2,457.2 306.6,457.2C316.1,457.2 325.3,459.7 334.2,464.9" style="fill:white;fill-rule:nonzero;"/>
                </g>
                <g transform="matrix(1.4671,2.54109,-2.54109,1.4671,1397.25,-206.562)">
                    <path d="M410.5,495C410.5,506.7 414.4,516.3 422.3,523.8C430.1,531.3 439.1,535.1 449.4,535.1C460.5,535.1 469.9,531.3 477.5,523.6C485.1,515.8 489,506.4 489,495.2C489,483.9 485.2,474.5 477.7,466.8C470.2,459.1 460.9,455.3 449.9,455.3C438.9,455.3 429.6,459.1 422,466.8C414.3,474.5 410.5,483.8 410.5,495M394.4,494.8C394.4,479.9 399.9,467.1 410.8,456.4C421.7,445.7 434.7,440.4 450,440.4C465.1,440.4 478,445.8 488.8,456.6C499.6,467.4 505,480.3 505,495.5C505,510.7 499.6,523.6 488.7,534.2C477.8,544.9 464.6,550.2 449.1,550.2C435.4,550.2 423.2,545.5 412.3,536C400.4,525.5 394.4,511.8 394.4,494.8" style="fill:rgb(250,206,50);fill-rule:nonzero;"/>
                </g>
                <g transform="matrix(1.4671,2.54109,-2.54109,1.4671,1397.25,-206.562)">
                    <rect x="552.1" y="459.2" width="16" height="105.9" style="fill:white;fill-rule:nonzero;"/>
                </g>
                <g transform="matrix(1.4671,2.54109,-2.54109,1.4671,1397.25,-206.562)">
                    <path d="M630,565.1L630,452L707.2,532.8L707.2,459.2L723.2,459.2L723.2,571.5L646,491L646,565.1L630,565.1Z" style="fill:white;fill-rule:nonzero;"/>
                </g>
            </g>
        </g>
        <g transform="matrix(0.295368,0,0,0.295368,-9.41095,35.1232)">
            <circle cx="1010" cy="1031" r="195" style="fill:white;"/>
        </g>
        <g transform="matrix(0.431714,0,0,0.431714,151.852,232.423)">
            <path d="M361.1,204.7L378.3,238.6L365.2,294.1L334.1,268.7L339.6,228L361.1,204.7Z" style="fill:white;fill-rule:nonzero;"/>
        </g>
        <g transform="matrix(0.431714,0,0,0.431714,151.852,232.423)">
            <path d="M315.2,193.3C311.6,193.3 308.7,190.4 308.7,186.8L308.7,135.7C308.7,132.1 311.6,129.2 315.2,129.2C318.8,129.2 321.7,132.1 321.7,135.7L321.7,186.8C321.6,190.4 318.7,193.3 315.2,193.3" style="fill:rgb(21,0,62);fill-rule:nonzero;"/>
        </g>
        <g transform="matrix(0.431714,0,0,0.431714,151.852,232.423)">
            <path d="M325.6,193.3L305.5,193.3C301.9,193.2 299.1,190.3 299.1,186.7C299.2,183.2 302,180.4 305.5,180.3L325.6,180.3C329.2,180.4 332,183.3 332,186.9C331.9,190.5 329,193.3 325.6,193.3" style="fill:rgb(21,0,62);fill-rule:nonzero;"/>
        </g>
        <g transform="matrix(0.431714,0,0,0.431714,151.852,232.423)">
            <path d="M361.1,204.7L382.4,184.6C366.1,168.3 343.5,158.2 318.7,158.2C268.9,158.2 228.5,198.6 228.5,248.4C228.5,298.2 268.9,338.6 318.7,338.6C337.3,338.6 353.6,345.4 367.9,335.8L385.7,338.3L385.2,309.3L334.1,268.8L345.1,217.1L361.1,204.7" style="fill:white;fill-rule:nonzero;"/>
        </g>
        <g transform="matrix(0.431714,0,0,0.431714,151.852,232.423)">
            <path d="M318.7,347.4C264.1,347.4 219.7,303 219.7,248.4C219.7,193.8 264.1,149.4 318.7,149.4C345.1,149.4 370,159.7 388.7,178.4L395.1,184.8L367.1,211.1L355,198.2L369.3,184.7C355,173.2 337.3,167 318.6,167C273.8,167 237.3,203.5 237.3,248.3C237.3,293.1 273.8,329.6 318.6,329.6" style="fill:rgb(21,0,62);fill-rule:nonzero;"/>
        </g>
        <g transform="matrix(0.431714,0,0,0.431714,151.852,232.423)">
            <path d="M368.4,296.5L355.7,284.2C365.1,274.5 370.2,261.8 370.2,248.4C370.2,234.4 364.7,221.2 354.6,211.5L348,205L355.1,198.3L361.2,204.7L367,198.7C380.5,211.8 388,229.5 388,248.3C387.9,266.4 381,283.5 368.4,296.5" style="fill:rgb(15,206,124);fill-rule:nonzero;"/>
        </g>
        <g transform="matrix(0.431714,0,0,0.431714,151.852,232.423)">
            <path d="M298.4,248.4C298.4,237.2 307.5,228 318.8,228C330,228 339.2,237.1 339.2,248.4C339.2,259.6 330.1,268.8 318.8,268.8C307.5,268.7 298.4,259.6 298.4,248.4" style="fill:rgb(239,244,238);fill-rule:nonzero;"/>
        </g>
        <g transform="matrix(0.431714,0,0,0.431714,151.852,232.423)">
            <path d="M318.7,236.9C312.4,236.9 307.2,242.1 307.2,248.4C307.2,254.7 312.4,259.9 318.7,259.9C325,259.9 330.2,254.7 330.2,248.4C330.2,242 325.1,236.9 318.7,236.9M318.7,277.6C302.6,277.6 289.5,264.5 289.5,248.4C289.5,232.3 302.6,219.2 318.7,219.2C334.8,219.2 347.9,232.3 347.9,248.4C347.9,264.5 334.8,277.6 318.7,277.6M382.5,184.6L331,232.2" style="fill:rgb(21,0,62);fill-rule:nonzero;"/>
        </g>
        <g transform="matrix(0.431714,0,0,0.431714,151.852,232.423)">
            <path d="M376.5,178.1L388.5,191.1L337,238.7L325,225.7L376.5,178.1Z" style="fill:rgb(21,0,62);fill-rule:nonzero;"/>
        </g>
        <g transform="matrix(0.431714,0,0,0.431714,151.852,232.423)">
            <path d="M328.3,266.3L365.3,294.1L385.3,309.1L385.3,347.3L345.2,345.4" style="fill:white;fill-rule:nonzero;"/>
        </g>
        <g transform="matrix(0.431714,0,0,0.431714,151.852,232.423)">
            <path d="M394.1,347.4L317.1,347.4L317.1,329.7L376.4,329.7L376.4,313.6L323,273.4L333.6,259.3L394.1,304.8L394.1,347.4Z" style="fill:rgb(21,0,62);fill-rule:nonzero;"/>
        </g>
        <g transform="matrix(0.431714,0,0,0.431714,151.852,232.423)">
            <path d="M284.4,211.2C280.8,211.2 277.9,208.3 277.9,204.7L277.9,135.7C278,132.1 280.9,129.3 284.5,129.3C288,129.4 290.8,132.2 290.9,135.7L290.9,204.7C290.9,208.3 288,211.2 284.4,211.2" style="fill:rgb(21,0,62);fill-rule:nonzero;"/>
        </g>
    </g>
</svg>
